# xmcd CD database file
#
# Track frame offsets:
#	150
#	26170
#	40465
#	58270
#	78207
#	106544
#	127720
#	152995
#	165198
#	191949
#	211316
#	224580
#	244733
#	296333
#
# Disc length: 4448 seconds
#
# Revision: 0
# Processed by: cddbd v1.5.2PL0 Copyright (c) Steve Scherf et al.
# Submitted via: CDex 1.70beta2
#
DISCID=c1115e0e
DTITLE=Giuffre, Jimmy - Travlin Ligt/Western Suite
DYEAR=1958
DGENRE=Jazz
TTITLE0=Pickin' em up and layin' em down
TTITLE1=The green country
TTITLE2=The lonely time
TTITLE3=Travlin light
TTITLE4=Forty-second street
TTITLE5=Show me the way to go home
TTITLE6=The swamp people
TTITLE7=California, here I come
TTITLE8=1st movement - Pony express
TTITLE9=2nd movement - Apaches
TTITLE10=3rd movement - Saturday night dance
TTITLE11=4th movement - Big pow wow
TTITLE12=Topsy
TTITLE13=Blue monk
EXTD=YEAR: 1958
EXTT0=
EXTT1=
EXTT2=
EXTT3=
EXTT4=
EXTT5=
EXTT6=
EXTT7=
EXTT8=
EXTT9=
EXTT10=
EXTT11=
EXTT12=
EXTT13=
PLAYORDER=
